<svg width="29" height="29" viewBox="0 0 29 29" fill="none" xmlns="http://www.w3.org/2000/svg">
<path d="M21.75 24.0972L19.4028 21.75L18.125 23.0278L21.75 26.6528L28.0938 20.3091L26.8159 19.0312L21.75 24.0972ZM13.5938 20.8438H15.4062V22.6562H13.5938V20.8438ZM8.15625 20.8438H9.96875V22.6562H8.15625V20.8438ZM19.0312 16.3125H20.8438V18.125H19.0312V16.3125ZM13.5938 16.3125H15.4062V18.125H13.5938V16.3125ZM8.15625 16.3125H9.96875V18.125H8.15625V16.3125ZM19.0312 11.7812H20.8438V13.5938H19.0312V11.7812ZM13.5938 11.7812H15.4062V13.5938H13.5938V11.7812ZM8.15625 11.7812H9.96875V13.5938H8.15625V11.7812ZM8.15625 6.34375H20.8438V9.0625H8.15625V6.34375Z" fill="#333333"/>
<path d="M15.4062 27.1875H5.44203C4.96027 27.187 4.49838 26.9954 4.15773 26.6548C3.81707 26.3141 3.62548 25.8522 3.625 25.3705V3.62138C3.62548 3.14178 3.81621 2.68196 4.15534 2.34284C4.49446 2.00371 4.95428 1.81298 5.43387 1.8125H23.5661C24.0457 1.81298 24.5055 2.00371 24.8447 2.34284C25.1838 2.68196 25.3745 3.14178 25.375 3.62138V16.3125H23.5625V3.625H5.4375V25.375H15.4062V27.1875Z" fill="#333333"/>
</svg>
