<svg width="28" height="28" viewBox="0 0 28 28" fill="none" xmlns="http://www.w3.org/2000/svg">
<g clip-path="url(#clip0_19521_22)">
<path d="M8.05556 19.4443V19.9443H8.55556H12.6962L13.2518 20.4999H7.5V14.7481L8.05556 15.3037V19.4443Z" stroke="#333333"/>
<path d="M26.7652 25.4657L26.7652 25.4657L26.7691 25.4696C26.8083 25.5085 26.835 25.5581 26.8459 25.6122C26.8567 25.6663 26.8512 25.7224 26.8301 25.7734L27.2919 25.9651L26.8301 25.7734C26.8089 25.8243 26.7731 25.8678 26.7271 25.8983C26.6811 25.9288 26.6271 25.945 26.5719 25.9446H26.569H2.33345C2.25978 25.9446 2.18913 25.9154 2.13704 25.8633C2.08494 25.8112 2.05568 25.7405 2.05568 25.6668V1.55574H2.05569L2.05567 1.55283C2.05535 1.49766 2.07147 1.44364 2.10197 1.39766C2.13247 1.35168 2.17597 1.31583 2.22692 1.29467C2.27788 1.27351 2.33398 1.26801 2.38808 1.27886C2.44218 1.28972 2.49182 1.31643 2.53067 1.35561L2.53066 1.35562L2.533 1.35794L15.009 13.7725V14.5557L3.46378 3.07563L2.61123 2.22789V3.43018V7.77796V8.27796H3.11123H4.16679V8.5224H3.11123H2.61123V9.0224V14.0002V14.5002H3.11123H4.16679V14.7446H3.11123H2.61123V15.2446V20.4168V20.9168H3.11123H4.16679V21.1613H3.11123H2.61123V21.6613V24.8891V25.3891H3.11123H24.889H25.389V24.8891V24.0703L26.7652 25.4657ZM2.33345 26.4446H26.569L2.88568 1.00352C2.77689 0.893827 2.6379 0.81902 2.48643 0.788632C2.33496 0.758245 2.17787 0.773654 2.03519 0.832895C1.89251 0.892135 1.77071 0.992524 1.68531 1.12126C1.59991 1.25 1.55478 1.40125 1.55568 1.55574V25.6668C1.55568 25.8731 1.63762 26.071 1.78348 26.2168C1.92934 26.3627 2.12718 26.4446 2.33345 26.4446Z" stroke="#333333"/>
<path d="M20.1398 3.19993L19.7309 3.99454L18.2221 6.92677L18.1666 7.03445V7.15555V18.6667V19.1667H18.6666H21.7778H22.2778V18.6667V7.16333V7.03593L22.2168 6.92406L20.6146 3.98406L20.1866 3.19878C20.373 3.19692 20.5565 3.24443 20.7186 3.33653C20.8802 3.42835 21.0147 3.56121 21.1085 3.72163L22.8333 6.8938V21.7778C22.8333 22.0577 22.7221 22.3262 22.5241 22.5242C22.3262 22.7221 22.0577 22.8333 21.7778 22.8333H18.6666C18.3867 22.8333 18.1182 22.7221 17.9202 22.5242C17.7223 22.3262 17.6111 22.0577 17.6111 21.7778V6.90503L19.2497 3.77053L19.2497 3.77053L19.2506 3.76887C19.3389 3.59835 19.4721 3.45515 19.6358 3.35471C19.7882 3.2612 19.9617 3.20804 20.1398 3.19993ZM18.6666 19.4344H18.1666V19.9344V21.8322V22.3322H18.6666H21.7778H22.2778V21.8322V19.9344V19.4344H21.7778H18.6666Z" stroke="#333333"/>
</g>
<defs>
<clipPath id="clip0_19521_22">
<rect width="28" height="28" fill="white"/>
</clipPath>
</defs>
</svg>
